<?xml version="1.0" encoding="UTF-8" standalone="no"?>
<svg
   width="16"
   height="16"
   fill="currentColor"
   class="bi bi-type-bold"
   version="1.1"
   id="svg1"
   xml:space="preserve"
   xmlns="http://www.w3.org/2000/svg"
   xmlns:svg="http://www.w3.org/2000/svg"><defs
     id="defs1" /><path
     style="fill:#000000;stroke-width:0.0459588"
     d="m 4.7658702,13.082687 c -0.02528,-0.0088 -0.102453,-0.0285 -0.171501,-0.04371 -0.168432,-0.03712 -0.448071,-0.288781 -0.524724,-0.472239 -0.04248,-0.10168 -0.06209,-0.35951 -0.06209,-0.816483 V 11.08238 h -0.571201 c -0.457995,0 -0.585514,-0.01431 -0.643421,-0.07222 -0.06198,-0.06198 -0.07222,-0.243122 -0.07222,-1.2780601 0,-0.9679838 0.01285,-1.2234348 0.06514,-1.2950488 0.05735,-0.07855 0.134266,-0.09103 0.643422,-0.10445 l 0.578284,-0.01524 10e-4,-0.651163 c 0.0013,-0.8558475 0.08938,-1.0685215 0.516232,-1.2468725 0.14163,-0.05918 0.438904,-0.07069 1.825174,-0.07069 h 1.655988 v -0.552947 c 0,-0.484923 -0.0099,-0.556516 -0.08043,-0.581962 -0.465784,-0.168039 -0.671396,-0.7766551 -0.411948,-1.2193706 0.426788,-0.7282581 1.565996,-0.419802 1.565996,0.4240147 0,0.2927549 -0.132164,0.5356479 -0.393696,0.7235399 l -0.223248,0.160388 0.01294,0.511678 0.01294,0.511679 1.7004708,0.02298 c 1.463686,0.01978 1.719685,0.03352 1.838455,0.0987 0.358537,0.196756 0.436499,0.416243 0.436499,1.2288755 v 0.641149 l 0.567585,0.01524 c 0.394501,0.01059 0.59071,0.03447 0.643421,0.07831 0.06702,0.05574 0.07584,0.206275 0.07584,1.2950498 0,1.0586971 -0.01016,1.2421311 -0.07222,1.3041951 -0.05791,0.05791 -0.185427,0.07222 -0.643421,0.07222 h -0.571201 v 0.674869 c 0,0.818466 -0.05979,0.994748 -0.406552,1.198595 l -0.21389,0.125737 -3.5158378,0.0086 c -1.933711,0.0047 -3.536519,0.0013 -3.561797,-0.0075 z m 5.3341668,-1.347733 c 0.244202,-0.183354 0.318749,-0.358257 0.318749,-0.747848 0,-0.299919 -0.01691,-0.373598 -0.122285,-0.532832 -0.221416,-0.334582 -0.236364,-0.337026 -2.0607508,-0.337026 -1.809731,0 -1.841233,0.0049 -2.047449,0.317403 -0.190459,0.288642 -0.170056,0.919954 0.03701,1.14521 0.270221,0.293954 0.214131,0.286506 2.056395,0.273071 1.670116,-0.01218 1.67811,-0.0127 1.8183288,-0.117978 z M 7.1736362,9.5056119 c 0.468589,-0.3100968 0.517194,-1.0024618 0.09702,-1.3820618 -0.714462,-0.6454735 -1.750668,0.09843 -1.403467,1.007566 0.07759,0.2031678 0.260428,0.3830938 0.485626,0.4778938 0.20322,0.08555 0.613375,0.03388 0.820818,-0.103398 z m 3.1251898,0 c 0.102895,-0.06809 0.228854,-0.2056838 0.279908,-0.3057578 0.10859,-0.212854 0.122629,-0.576822 0.03073,-0.796761 -0.11402,-0.272887 -0.51319,-0.537308 -0.8111228,-0.537308 -0.297933,0 -0.697103,0.264421 -0.811122,0.537308 -0.108943,0.260736 -0.08007,0.610753 0.06987,0.847193 0.263355,0.4152688 0.825406,0.5308378 1.2417328,0.2553258 z"
     id="path3" /><path
     style="fill:#000000;stroke-width:0.0069795"
     d="m 12.101477,5.6472716 c -0.01845,-0.00743 -0.04412,-0.021568 -0.05704,-0.031422 -0.01292,-0.00985 -0.212632,-0.2071729 -0.443805,-0.4384857 -0.481147,-0.4814391 -0.463513,-0.4597292 -0.463513,-0.5706279 0,-0.051814 0.0027,-0.065071 0.02152,-0.1046927 0.01184,-0.024952 0.03485,-0.058616 0.05113,-0.074811 0.05661,-0.056297 0.149309,-0.086433 0.215546,-0.07007 0.024,0.00593 0.425693,0.0091 1.508872,0.01192 l 1.476163,0.00384 0.03316,0.015314 c 0.01824,0.00842 0.05004,0.03128 0.07067,0.050794 0.09121,0.086258 0.105627,0.2216046 0.03475,0.3261099 -0.0288,0.042469 -0.05734,0.065692 -0.112507,0.091545 l -0.04003,0.018762 -1.186113,0.00186 -1.186114,0.00186 0.189477,0.19029 c 0.224378,0.2253406 0.228491,0.2314593 0.228491,0.3399154 0,0.059135 -0.0022,0.070792 -0.02038,0.1078021 -0.02497,0.050862 -0.06748,0.094479 -0.116859,0.1199211 -0.05039,0.02596 -0.151615,0.031021 -0.203418,0.010171 z m 2.197198,-1.782359 c -0.01931,-0.0052 -0.48316,-0.00874 -1.504081,-0.011486 l -1.476164,-0.00396 -0.03316,-0.015314 c -0.0491,-0.022673 -0.10483,-0.078789 -0.126733,-0.1275963 -0.06844,-0.1525092 0.01795,-0.3202978 0.182918,-0.3552639 0.02651,-0.00562 0.366262,-0.00784 1.200189,-0.00784 h 1.163204 L 13.515254,3.1530384 C 13.290745,2.9275659 13.286645,2.9214681 13.286645,2.8130057 c 0,-0.05717 0.0026,-0.071595 0.01832,-0.1046928 0.02595,-0.054366 0.06098,-0.091519 0.112011,-0.1188249 0.03879,-0.020751 0.05178,-0.023953 0.106967,-0.026346 0.0521,-0.00226 0.06996,-8.83e-5 0.104693,0.012719 0.0401,0.014786 0.06061,0.034133 0.482918,0.4555355 0.502335,0.5012561 0.479771,0.4737841 0.479888,0.5842507 5.5e-5,0.049941 -0.0029,0.065771 -0.01887,0.1000687 -0.02305,0.049603 -0.04598,0.077816 -0.08719,0.1072844 -0.05332,0.038126 -0.133737,0.05618 -0.186708,0.041913 z"
     id="path5" /></svg>
