<?xml version="1.0" encoding="UTF-8" standalone="no"?>
<svg
   width="16"
   height="16"
   fill="currentColor"
   class="bi bi-type-bold"
   version="1.1"
   id="svg1"
   xml:space="preserve"
   xmlns="http://www.w3.org/2000/svg"
   xmlns:svg="http://www.w3.org/2000/svg"><defs
     id="defs1" /><path
     style="fill:#000000;stroke-width:0.0459588"
     d="m 4.7658702,13.082687 c -0.02528,-0.0088 -0.102453,-0.0285 -0.171501,-0.04371 -0.168432,-0.03712 -0.448071,-0.288781 -0.524724,-0.472239 -0.04248,-0.10168 -0.06209,-0.35951 -0.06209,-0.816483 V 11.08238 h -0.571201 c -0.457995,0 -0.585514,-0.01431 -0.643421,-0.07222 -0.06198,-0.06198 -0.07222,-0.243122 -0.07222,-1.2780601 0,-0.9679838 0.01285,-1.2234348 0.06514,-1.2950488 0.05735,-0.07855 0.134266,-0.09103 0.643422,-0.10445 l 0.578284,-0.01524 10e-4,-0.651163 c 0.0013,-0.8558475 0.08938,-1.0685215 0.516232,-1.2468725 0.14163,-0.05918 0.438904,-0.07069 1.825174,-0.07069 h 1.655988 v -0.552947 c 0,-0.484923 -0.0099,-0.556516 -0.08043,-0.581962 -0.465784,-0.168039 -0.671396,-0.7766551 -0.411948,-1.2193706 0.426788,-0.7282581 1.565996,-0.419802 1.565996,0.4240147 0,0.2927549 -0.132164,0.5356479 -0.393696,0.7235399 l -0.223248,0.160388 0.01294,0.511678 0.01294,0.511679 1.7004708,0.02298 c 1.463686,0.01978 1.719685,0.03352 1.838455,0.0987 0.358537,0.196756 0.436499,0.416243 0.436499,1.2288755 v 0.641149 l 0.567585,0.01524 c 0.394501,0.01059 0.59071,0.03447 0.643421,0.07831 0.06702,0.05574 0.07584,0.206275 0.07584,1.2950498 0,1.0586971 -0.01016,1.2421311 -0.07222,1.3041951 -0.05791,0.05791 -0.185427,0.07222 -0.643421,0.07222 h -0.571201 v 0.674869 c 0,0.818466 -0.05979,0.994748 -0.406552,1.198595 l -0.21389,0.125737 -3.5158378,0.0086 c -1.933711,0.0047 -3.536519,0.0013 -3.561797,-0.0075 z m 5.3341668,-1.347733 c 0.244202,-0.183354 0.318749,-0.358257 0.318749,-0.747848 0,-0.299919 -0.01691,-0.373598 -0.122285,-0.532832 -0.221416,-0.334582 -0.236364,-0.337026 -2.0607508,-0.337026 -1.809731,0 -1.841233,0.0049 -2.047449,0.317403 -0.190459,0.288642 -0.170056,0.919954 0.03701,1.14521 0.270221,0.293954 0.214131,0.286506 2.056395,0.273071 1.670116,-0.01218 1.67811,-0.0127 1.8183288,-0.117978 z M 7.1736362,9.5056119 c 0.468589,-0.3100968 0.517194,-1.0024618 0.09702,-1.3820618 -0.714462,-0.6454735 -1.750668,0.09843 -1.403467,1.007566 0.07759,0.2031678 0.260428,0.3830938 0.485626,0.4778938 0.20322,0.08555 0.613375,0.03388 0.820818,-0.103398 z m 3.1251898,0 c 0.102895,-0.06809 0.228854,-0.2056838 0.279908,-0.3057578 0.10859,-0.212854 0.122629,-0.576822 0.03073,-0.796761 -0.11402,-0.272887 -0.51319,-0.537308 -0.8111228,-0.537308 -0.297933,0 -0.697103,0.264421 -0.811122,0.537308 -0.108943,0.260736 -0.08007,0.610753 0.06987,0.847193 0.263355,0.4152688 0.825406,0.5308378 1.2417328,0.2553258 z"
     id="path3" /><path
     style="fill:#000000;stroke-width:0.0104989"
     d="m 13.558214,7.0767385 c -0.06952,-0.0309 -0.09974,-0.088226 -0.09974,-0.1892157 0,-0.1367611 -0.04993,-0.3366876 -0.118167,-0.4731408 C 13.234614,6.2030232 13.051784,6.0097141 12.851803,5.8978794 12.694751,5.8100506 12.534345,5.7630522 12.34286,5.7487597 c -0.136685,-0.010192 -0.17741,-0.026202 -0.210372,-0.082636 -0.02477,-0.042408 -0.02539,-0.1176665 -0.0013,-0.1584278 0.02973,-0.050324 0.08125,-0.071581 0.193425,-0.079813 0.261745,-0.019201 0.471275,-0.095144 0.665131,-0.2410439 0.13643,-0.1026805 0.274116,-0.2679002 0.350655,-0.4207798 0.06385,-0.1275214 0.118093,-0.3461123 0.118093,-0.4758453 0,-0.1262377 0.06104,-0.2013315 0.16364,-0.2013315 0.08282,0 0.151241,0.073575 0.151339,0.1627331 8.4e-5,0.079479 0.02325,0.2311449 0.04875,0.3191698 0.06921,0.23891 0.221971,0.4619319 0.418433,0.6108838 0.194055,0.1471246 0.388303,0.2200826 0.651086,0.2445386 0.15649,0.014562 0.180806,0.024734 0.217268,0.09086 0.02451,0.044455 0.02014,0.115278 -0.0096,0.155072 -0.04292,0.057483 -0.06727,0.067049 -0.193661,0.076067 -0.1287,0.00919 -0.232557,0.028649 -0.323914,0.060714 -0.292803,0.1027595 -0.533333,0.3114784 -0.673767,0.5846618 -0.07944,0.1545245 -0.114619,0.2865623 -0.133214,0.4999458 -0.0099,0.1141857 -0.02873,0.152188 -0.08942,0.18099 -0.04307,0.020438 -0.08462,0.021161 -0.127231,0.00224 z M 10.832217,5.4850746 c -0.04984,-0.026327 -0.08245,-0.09213 -0.08245,-0.1663317 0,-0.07759 -0.0279,-0.2037984 -0.0646,-0.2922187 -0.07335,-0.176719 -0.228108,-0.3395738 -0.401787,-0.4227979 -0.120528,-0.057759 -0.202448,-0.079894 -0.3348225,-0.090483 -0.105637,-0.00846 -0.147637,-0.029314 -0.178383,-0.088605 -0.02342,-0.045172 -0.01839,-0.1163986 0.01102,-0.1558504 0.03568,-0.047883 0.07962,-0.065761 0.183808,-0.074807 0.2296115,-0.019944 0.4073455,-0.1033188 0.5558735,-0.2607649 0.141569,-0.1500699 0.228896,-0.3556132 0.228896,-0.5387502 0,-0.1370715 0.109131,-0.2211334 0.224502,-0.1729281 0.05985,0.025007 0.08185,0.068764 0.09224,0.1834731 0.02604,0.2873508 0.155937,0.5096259 0.383329,0.6559267 0.132302,0.085121 0.234156,0.1185693 0.407369,0.1337725 0.114066,0.010015 0.139524,0.021675 0.181292,0.083046 0.04545,0.066773 0.02182,0.1649512 -0.05024,0.2087728 -0.02073,0.012601 -0.06366,0.022063 -0.121509,0.026754 -0.323672,0.026267 -0.575244,0.1931256 -0.716684,0.4753617 -0.04376,0.087319 -0.07246,0.1970841 -0.08356,0.3195508 -0.0072,0.07893 -0.01447,0.1086329 -0.03328,0.1350483 -0.04403,0.061846 -0.12948,0.079624 -0.201014,0.041829 z m 2.03853,-1.9284368 c -0.05677,-0.029438 -0.08053,-0.07421 -0.08926,-0.1682324 -0.02124,-0.2286935 -0.13896,-0.4109418 -0.32983,-0.5106257 -0.08764,-0.045773 -0.130781,-0.057988 -0.245246,-0.069439 -0.106108,-0.010608 -0.15409,-0.034266 -0.179914,-0.088686 -0.04876,-0.1027537 0.02175,-0.2257302 0.130118,-0.2269253 0.07949,-7.896e-4 0.201479,-0.030667 0.279742,-0.068312 0.112248,-0.053987 0.227802,-0.1691845 0.279329,-0.2784632 0.04217,-0.089429 0.05592,-0.1411448 0.06631,-0.24925 0.0119,-0.123824 0.07299,-0.1870368 0.171103,-0.177043 0.09234,0.0094 0.133272,0.065494 0.147402,0.201997 0.03201,0.3092626 0.248216,0.5258642 0.559806,0.5608359 0.112063,0.012584 0.157626,0.031888 0.18687,0.079204 0.03929,0.063574 0.01902,0.1719127 -0.03933,0.2101418 -0.01515,0.00994 -0.07409,0.023757 -0.135786,0.031858 -0.326985,0.042947 -0.539188,0.2522594 -0.571401,0.5636201 -0.01049,0.1013921 -0.02825,0.144159 -0.07407,0.1783053 -0.03945,0.029406 -0.110677,0.03444 -0.155848,0.011022 z"
     id="path4" /></svg>
