<?xml version="1.0" encoding="UTF-8" standalone="no"?>
<svg
   width="64"
   height="64"
   viewBox="0 0 64 64"
   fill="none"
   version="1.1"
   id="svg10"
   xmlns="http://www.w3.org/2000/svg"
   xmlns:svg="http://www.w3.org/2000/svg">
  <defs
     id="defs14" />
  <path
     d="m 22.2,30.483334 c 1.544377,0 2.8,-1.360259 2.8,-3.033334 0,-1.673074 -1.255623,-3.033333 -2.8,-3.033333 -1.544377,0 -2.8,1.360259 -2.8,3.033333 0,1.673075 1.255623,3.033334 2.8,3.033334 z m 19.6,0 c 1.544387,0 2.8,-1.360259 2.8,-3.033334 0,-1.673074 -1.255613,-3.033333 -2.8,-3.033333 -1.544387,0 -2.8,1.360259 -2.8,3.033333 0,1.673075 1.255613,3.033334 2.8,3.033334 z M 43.2,32 h -2.8 c -0.77,0 -1.465613,0.336467 -1.97316,0.881534 1.76316,1.04748 3.014387,2.9386 3.285613,5.185133 H 44.6 c 0.774387,0 1.4,-0.677787 1.4,-1.516667 V 35.033334 C 46,33.36024 44.744387,32 43.2,32 Z M 32,32 c 2.70816,0 4.9,-2.37453 4.9,-5.308333 0,-2.933803 -2.19184,-5.308333 -4.9,-5.308333 -2.70816,0 -4.9,2.37453 -4.9,5.308333 C 27.1,29.625469 29.29184,32 32,32 Z m 3.36,1.516667 H 34.99684 C 34.08684,33.990614 33.076227,34.275 32,34.275 c -1.076227,0 -2.082453,-0.284386 -2.99684,-0.758333 H 28.64 c -2.7825,0 -5.04,2.445613 -5.04,5.46 v 1.365 c 0,1.255987 0.940623,2.275 2.1,2.275 h 12.6 c 1.159387,0 2.1,-1.019013 2.1,-2.275 v -1.365 c 0,-3.014387 -2.257547,-5.46 -5.04,-5.46 z M 25.573123,32.881534 C 25.065623,32.336467 24.37,32 23.6,32 H 20.8 C 19.255623,32 18,33.36024 18,35.033334 V 36.55 c 0,0.83888 0.625625,1.516667 1.4,1.516667 h 2.883123 c 0.275632,-2.246533 1.526877,-4.137653 3.29,-5.185133 z"
     fill="#2f327d"
     id="path460"
     style="stroke-width:0.933333" />
</svg>
